<?xml version="1.0" encoding="utf-8"?>
<!-- Generator: Adobe Illustrator 23.0.3, SVG Export Plug-In . SVG Version: 6.00 Build 0)  -->
<svg version="1.1" id="Layer_1" xmlns="http://www.w3.org/2000/svg" xmlns:xlink="http://www.w3.org/1999/xlink" x="0px" y="0px"
	 viewBox="0 0 425.5 322.4" style="enable-background:new 0 0 425.5 322.4;" xml:space="preserve">
<style type="text/css">
	.st0{fill-rule:evenodd;clip-rule:evenodd;fill:#00A1F5;}
	.st1{fill-rule:evenodd;clip-rule:evenodd;fill:#037FF3;}
	.st2{fill-rule:evenodd;clip-rule:evenodd;fill:#0169E6;}
	.st3{fill-rule:evenodd;clip-rule:evenodd;fill:#0440C4;}
	.st4{fill-rule:evenodd;clip-rule:evenodd;fill:#92DEF6;}
	.st5{fill:#FFF;}
</style>
<g id="Guias_para_prancheta">
</g>
<g>
	<g id="Camada_1">
		<path class="st0" d="M209.7,179.4c91.7,0,166.4-8.4,166.4-18.7S301.3,142,209.7,142c-91.7,0-166.4,8.4-166.4,18.7
			C43.3,171.1,118,179.4,209.7,179.4z"/>
		<polygon class="st1" points="168.9,114.3 137.8,49 149.8,115.1 		"/>
		<polygon class="st2" points="152.9,162.6 72.1,162.6 149.8,115.1 		"/>
		<polygon class="st2" points="279.4,162.6 279.4,140.2 167.5,113.7 151.4,162.6 		"/>
		<polygon class="st3" points="279.4,162.6 279.4,140.5 318.8,87.4 338.3,162.6 		"/>
		<polygon class="st4" points="149.8,115.1 137.8,49 72,162.6 		"/>
		<polygon class="st4" points="279.4,140.5 214.6,12.2 168.9,114.3 		"/>
		<polygon class="st1" points="318.8,87.4 214.6,12.2 279.4,140.5 		"/>
		<polygon class="st3" points="168.9,114.3 149.8,115.1 152.9,162.6 		"/>
		<g>
			<path class="st5" d="M10.3,203h10.8v64.2H10.3V203z"/>
			<path class="st5" d="M68.3,257.4c3.7,0,7-0.6,9.6-1.9c2.7-1.3,5.5-3.3,8.5-6l7,7.2c-6.8,7.5-15.1,11.3-24.8,11.3
				s-17.8-3.1-24.2-9.4c-6.4-6.2-9.6-14.2-9.6-23.7c0-9.6,3.3-17.5,9.8-23.9s14.8-9.6,24.7-9.6c10,0,18.3,3.7,25,11l-6.9,7.5
				c-3.1-2.9-6-5-8.7-6.2s-5.9-1.7-9.6-1.7c-6.5,0-11.9,2.1-16.4,6.3c-4.4,4.2-6.6,9.6-6.6,16.1s2.2,12,6.6,16.4
				C57.1,255.3,62.3,257.4,68.3,257.4z"/>
			<path class="st5" d="M151.8,203v10.2h-34.3v17h30.8v9.6h-30.8V257h35.4v10.2h-46.2V203H151.8z"/>
			<path class="st5" d="M194.9,267.3h-28.1V203h25c4.3,0,8.1,0.5,11.3,1.6c3.2,1,5.5,2.5,7,4.2c2.9,3.3,4.4,7,4.4,11.2
				c0,5-1.6,8.8-4.8,11.2c-1.2,0.9-2,1.4-2.4,1.6c-0.4,0.2-1.2,0.6-2.3,1.1c4,0.9,7.2,2.7,9.5,5.4c2.4,2.7,3.5,6.1,3.5,10.2
				c0,4.5-1.5,8.4-4.6,11.9C209.8,265.3,203.6,267.3,194.9,267.3z M177.6,229.7h13.8c7.8,0,11.8-2.7,11.8-8c0-3.1-1-5.3-2.8-6.6
				c-1.9-1.3-4.8-2-8.8-2h-13.9v16.6H177.6z M177.6,257.3h17c4,0,7-0.6,9.1-1.9s3.2-3.6,3.2-7.1c0-5.7-4.6-8.5-13.7-8.5h-15.6V257.3
				z"/>
			<path class="st5" d="M276.8,203v10.2h-34.3v17h30.8v9.6h-30.8V257h35.4v10.2h-46.2V203H276.8z"/>
			<path class="st5" d="M343,223.9c0,10.6-4.6,17.3-13.9,20l16.8,23.3h-13.8l-15.3-21.6h-14.2v21.6h-10.8V203h23.9
				c9.8,0,16.8,1.7,21,5C340.9,211.3,343,216.6,343,223.9z M328.6,233c2.2-1.9,3.3-4.9,3.3-9.1c0-4.2-1.1-7.1-3.4-8.6
				c-2.3-1.6-6.3-2.3-12.1-2.3h-13.8v23h13.5C322.2,235.8,326.4,234.9,328.6,233z"/>
			<path class="st5" d="M403.1,236H414v22c-6.1,6.7-14.7,10-26,10c-9.5,0-17.4-3.1-23.8-9.4c-6.4-6.2-9.6-14.2-9.6-23.7
				c0-9.6,3.3-17.5,9.8-23.9s14.4-9.6,23.7-9.6c9.3,0,16.9,2.7,23.1,8.1l-5.8,8.3c-2.5-2.1-5-3.6-7.6-4.5c-2.5-0.8-5.5-1.2-8.9-1.2
				c-6.5,0-11.9,2.1-16.4,6.3c-4.4,4.2-6.6,9.7-6.6,16.5s2.1,12.3,6.4,16.5c4.3,4.1,9.5,6.2,15.6,6.2s11.2-1.3,15.3-4V236H403.1z"/>
		</g>
	</g>
	<g>
		<path class="st5" d="M12.6,306.9v-20.2h2.9l6.5,10.2c1.5,2.4,2.7,4.5,3.6,6.6l0.1,0c-0.2-2.7-0.3-5.2-0.3-8.3v-8.5h2.5v20.2h-2.6
			l-6.4-10.3c-1.4-2.2-2.8-4.6-3.8-6.7l-0.1,0c0.1,2.6,0.2,5,0.2,8.3v8.6H12.6z"/>
		<path class="st5" d="M50.1,297.4h-7.9v7.3H51v2.2H39.7v-20.2h10.9v2.2h-8.3v6.4h7.9V297.4z"/>
		<path class="st5" d="M72.8,306.9l-2.6-4.5c-1-1.7-1.7-2.8-2.3-4h-0.1c-0.6,1.2-1.1,2.2-2.2,4l-2.4,4.4h-3l6.2-10.2l-5.9-10h3
			l2.7,4.7c0.7,1.3,1.3,2.3,1.9,3.4h0.1c0.6-1.2,1.1-2.1,1.8-3.4l2.8-4.7h3l-6.1,9.8l6.3,10.4H72.8z"/>
		<path class="st5" d="M90.3,288.9h-6.1v-2.2h15v2.2H93v18h-2.6V288.9z"/>
		<path class="st5" d="M111.6,286.7h2.6v13.5c0,5.4-2.6,7-6.1,7c-1,0-2.1-0.2-2.8-0.5l0.4-2.1c0.5,0.2,1.3,0.4,2.2,0.4
			c2.3,0,3.7-1,3.7-5V286.7z"/>
		<path class="st5" d="M125.6,303.7c1.2,0.7,2.9,1.3,4.7,1.3c2.7,0,4.2-1.4,4.2-3.5c0-1.9-1.1-3-3.8-4c-3.3-1.2-5.3-2.9-5.3-5.7
			c0-3.1,2.6-5.5,6.5-5.5c2.1,0,3.6,0.5,4.5,1l-0.7,2.1c-0.7-0.4-2-1-3.8-1c-2.8,0-3.8,1.6-3.8,3c0,1.9,1.2,2.8,4,3.9
			c3.4,1.3,5.2,3,5.2,5.9c0,3.1-2.3,5.8-7.1,5.8c-2,0-4.1-0.6-5.2-1.3L125.6,303.7z"/>
		<path class="st5" d="M175.5,286.9c1.1-0.2,2.9-0.4,4.8-0.4c2.6,0,4.3,0.5,5.5,1.5c1,0.8,1.7,2,1.7,3.6c0,2-1.3,3.7-3.4,4.4v0.1
			c1.9,0.5,4.2,2.1,4.2,5.1c0,1.7-0.7,3.1-1.7,4c-1.4,1.3-3.7,1.9-7,1.9c-1.8,0-3.2-0.1-4-0.2V286.9z M178.1,295.2h2.4
			c2.8,0,4.4-1.4,4.4-3.4c0-2.4-1.8-3.3-4.4-3.3c-1.2,0-1.9,0.1-2.3,0.2V295.2z M178.1,304.9c0.5,0.1,1.3,0.1,2.2,0.1
			c2.7,0,5.2-1,5.2-3.9c0-2.8-2.4-3.9-5.2-3.9h-2.2V304.9z"/>
		<path class="st5" d="M216.4,296.6c0,7-4.2,10.6-9.4,10.6c-5.3,0-9.1-4.1-9.1-10.3c0-6.4,4-10.6,9.4-10.6
			C212.8,286.3,216.4,290.6,216.4,296.6z M200.7,296.9c0,4.3,2.3,8.2,6.4,8.2c4.1,0,6.5-3.8,6.5-8.4c0-4-2.1-8.2-6.5-8.2
			C202.8,288.5,200.7,292.5,200.7,296.9z"/>
		<path class="st5" d="M229.7,286.7v20.2h-2.6v-20.2H229.7z"/>
		<path class="st5" d="M241.6,286.7h2.6v18h8.6v2.2h-11.2V286.7z"/>
		<path class="st5" d="M273.6,297.4h-7.9v7.3h8.8v2.2h-11.4v-20.2h10.9v2.2h-8.3v6.4h7.9V297.4z"/>
		<path class="st5" d="M285.2,286.9c1.3-0.3,3.2-0.4,5-0.4c2.8,0,4.6,0.5,5.8,1.7c1,0.9,1.6,2.3,1.6,3.8c0,2.7-1.7,4.4-3.8,5.2v0.1
			c1.6,0.5,2.5,2,3,4.1c0.7,2.8,1.1,4.8,1.6,5.5h-2.7c-0.3-0.6-0.8-2.3-1.3-4.8c-0.6-2.8-1.7-3.8-4-3.9h-2.5v8.8h-2.6V286.9z
			 M287.9,296.2h2.7c2.8,0,4.6-1.5,4.6-3.8c0-2.6-1.9-3.8-4.6-3.8c-1.3,0-2.2,0.1-2.6,0.2V296.2z"/>
		<path class="st5" d="M308.7,286.9c1.3-0.2,2.9-0.4,5-0.4c2.6,0,4.5,0.6,5.7,1.7c1.1,1,1.8,2.4,1.8,4.2c0,1.8-0.5,3.3-1.6,4.3
			c-1.4,1.5-3.6,2.2-6.2,2.2c-0.8,0-1.5,0-2.1-0.2v8.1h-2.6V286.9z M311.3,296.7c0.6,0.2,1.3,0.2,2.2,0.2c3.1,0,5.1-1.5,5.1-4.3
			c0-2.7-1.9-4-4.8-4c-1.1,0-2,0.1-2.5,0.2V296.7z"/>
		<path class="st5" d="M332,286.7h2.6v18h8.6v2.2H332V286.7z"/>
		<path class="st5" d="M356.8,300.5l-2.1,6.4H352l6.9-20.2h3.1l6.9,20.2h-2.8l-2.2-6.4H356.8z M363.5,298.5l-2-5.8
			c-0.4-1.3-0.8-2.5-1-3.7h-0.1c-0.3,1.2-0.6,2.4-1,3.7l-2,5.8H363.5z"/>
		<path class="st5" d="M380.8,288.9h-6.2v-2.2h15v2.2h-6.2v18h-2.6V288.9z"/>
		<path class="st5" d="M409.7,297.4h-7.9v7.3h8.8v2.2h-11.4v-20.2h10.9v2.2h-8.3v6.4h7.9V297.4z"/>
	</g>
</g>
</svg>
